{"asset":{"version":"2.0","generator":"THREE.GLTFExporter"},"scenes":[{"name":"AuxScene","nodes":[5]}],"scene":0,"nodes":[{"name":"ForwardSupportTube_14","mesh":0},{"children":[0]},{"children":[1]},{"children":[2]},{"name":"ForwardSupportTube","extras":{"visible":true},"children":[3]},{"name":"SiD Geometry","children":[4]}],"bufferViews":[{"buffer":0,"byteOffset":0,"byteLength":6912,"target":34962,"byteStride":12},{"buffer":0,"byteOffset":6912,"byteLength":6912,"target":34962,"byteStride":12}],"buffers":[{"byteLength":13824,"uri":"data:application/octet-stream;base64,"}],"accessors":[{"bufferView":0,"componentType":5126,"count":576,"max":[11.250405311584473,11.250405311584473,120],"min":[-11.250405311584473,-11.250405311584473,-120],"type":"VEC3"},{"bufferView":1,"componentType":5126,"count":576,"max":[1,1,1],"min":[-1,-1,-1],"type":"VEC3"}],"materials":[{"pbrMetallicRoughness":{"baseColorFactor":[0.6038273388475408,0.6038273388475408,0.6038273388475408,1],"metallicFactor":0.5,"roughnessFactor":0.5}}],"meshes":[{"primitives":[{"mode":4,"attributes":{"POSITION":0,"NORMAL":1},"material":0}]}]}