{"asset":{"version":"2.0","generator":"THREE.GLTFExporter"},"scenes":[{"name":"AuxScene","nodes":[21]}],"scene":0,"nodes":[{"name":"Solenoid_12","mesh":0},{},{"children":[1]},{},{"children":[3]},{},{"children":[5]},{"children":[2,4,6]},{"name":"SolenoidEndcaps_layer0_0","mesh":1},{"name":"SolenoidEndcaps_layer0_slice0_0","mesh":2},{"children":[9]},{"matrix":[1,0,0,0,0,1,0,0,0,0,1,0,0,0,292,1],"children":[8,10]},{"name":"SolenoidEndcaps_layer0_1","mesh":1},{"name":"SolenoidEndcaps_layer0_slice0_0","mesh":2},{"children":[13]},{"matrix":[-1,0,-1.2246467991473532e-16,0,0,1,0,0,1.2246467991473532e-16,0,-1,0,0,0,-292,1],"children":[12,14]},{"children":[11,15]},{"children":[0,7,16]},{"children":[17]},{"children":[18]},{"name":"Solenoid","extras":{"visible":true,"opacity":0.5},"children":[19]},{"name":"SiD Geometry","children":[20]}],"bufferViews":[{"buffer":0,"byteOffset":0,"byteLength":3456,"target":34962,"byteStride":12},{"buffer":0,"byteOffset":3456,"byteLength":3456,"target":34962,"byteStride":12},{"buffer":0,"byteOffset":6912,"byteLength":3456,"target":34962,"byteStride":12},{"buffer":0,"byteOffset":10368,"byteLength":3456,"target":34962,"byteStride":12},{"buffer":0,"byteOffset":13824,"byteLength":3456,"target":34962,"byteStride":12},{"buffer":0,"byteOffset":17280,"byteLength":3456,"target":34962,"byteStride":12}],"buffers":[{"byteLength":20736,"uri":"data:application/octet-stream;base64,"}],"accessors":[{"bufferView":0,"componentType":5126,"count":288,"max":[342.9200134277344,342.9200134277344,295.0199890136719],"min":[-342.9200134277344,-342.9200134277344,-295.0199890136719],"type":"VEC3"},{"bufferView":1,"componentType":5126,"count":288,"max":[1,1,1],"min":[-1,-1,-1],"type":"VEC3"},{"bufferView":2,"componentType":5126,"count":288,"max":[338.8999938964844,338.8999938964844,2],"min":[-338.8999938964844,-338.8999938964844,-2],"type":"VEC3"},{"bufferView":3,"componentType":5126,"count":288,"max":[1,1,1],"min":[-1,-1,-1],"type":"VEC3"},{"bufferView":4,"componentType":5126,"count":288,"max":[338.8999938964844,338.8999938964844,2],"min":[-338.8999938964844,-338.8999938964844,-2],"type":"VEC3"},{"bufferView":5,"componentType":5126,"count":288,"max":[1,1,1],"min":[-1,-1,-1],"type":"VEC3"}],"materials":[{"pbrMetallicRoughness":{"baseColorFactor":[0.6038273388475408,0.6038273388475408,0.6038273388475408,0.4],"metallicFactor":0.5,"roughnessFactor":0.5},"alphaMode":"BLEND"},{"pbrMetallicRoughness":{"baseColorFactor":[0.6038273388475408,0.6038273388475408,0.6038273388475408,1],"metallicFactor":0.5,"roughnessFactor":0.5}}],"meshes":[{"primitives":[{"mode":4,"attributes":{"POSITION":0,"NORMAL":1},"material":0}]},{"primitives":[{"mode":4,"attributes":{"POSITION":2,"NORMAL":3},"material":0}]},{"primitives":[{"mode":4,"attributes":{"POSITION":4,"NORMAL":5},"material":1}]}]}